<svg xmlns="http://www.w3.org/2000/svg" width="1020" height="186" viewBox="0 0 1020 186" role="img" aria-labelledby="title desc">
  <title id="title">Wingshot Development social preview</title>
  <desc id="desc">A branded social card for Wingshot Development with a paper plane icon and site title.</desc>
  <defs>
    <linearGradient id="bg" x1="0" y1="0" x2="1020" y2="186" gradientUnits="userSpaceOnUse">
      <stop offset="0" stop-color="#9ba0a6" />
      <stop offset="0.52" stop-color="#8e98a4" />
      <stop offset="1" stop-color="#7c8ea5" />
    </linearGradient>
    <linearGradient id="plane" x1="0" y1="0" x2="1" y2="1">
      <stop offset="0" stop-color="#0f172a" />
      <stop offset="1" stop-color="#334155" />
    </linearGradient>
  </defs>

  <!-- Rounded background -->
  <rect width="1020" height="186" rx="24" fill="url(#bg)" />

  <!-- Icon + Title in a horizontal row, vertically centered -->
  <g transform="translate(26 33)">
    <rect x="0" y="0" width="120" height="120" rx="26" fill="#7dd3fc" />
    <path fill="url(#plane)" d="M95.7 17.8a5.2 5.2 0 0 0-5.5-1.1L21.2 44a5.2 5.2 0 0 0 .3 9.6l26.9 9.2 9.2 26.9a5.2 5.2 0 0 0 9.6.4L94.4 22a5.2 5.2 0 0 0-1.6-3.3ZM64.2 61.5l-7.5 19.3-6-17.6a5.2 5.2 0 0 0-3.2-3.2L30 54l54.5-21.1-19.3 7.6a5.2 5.2 0 0 0-3.2 3.1l-3 10 4.7 4.7Z" />
    <text x="152" y="82" fill="#0f172a" font-family="Lexend, Avenir Next, Segoe UI, sans-serif" font-size="67" font-weight="700" letter-spacing="-1">
      Wingshot Development
    </text>
  </g>
</svg>